<?xml version="1.0" encoding="UTF-8" standalone="no"?> <svg width="64" height="64" viewBox="0 0 64 64" fill="none" xmlns="http://www.w3.org/2000/svg">
<path d="M31.9999 52.8599C43.5206 52.8599 52.8599 43.5206 52.8599 31.9999C52.8599 20.4792 43.5206 11.1399 31.9999 11.1399C20.4792 11.1399 11.1399 20.4792 11.1399 31.9999C11.1399 43.5206 20.4792 52.8599 31.9999 52.8599Z" fill="#082f4d"/>
<path d="M32 14.25C32.3315 14.25 32.6495 14.1183 32.8839 13.8839C33.1183 13.6495 33.25 13.3315 33.25 13V4C33.25 3.66848 33.1183 3.35054 32.8839 3.11612C32.6495 2.8817 32.3315 2.75 32 2.75C31.6685 2.75 31.3505 2.8817 31.1161 3.11612C30.8817 3.35054 30.75 3.66848 30.75 4V13C30.75 13.3315 30.8817 13.6495 31.1161 13.8839C31.3505 14.1183 31.6685 14.25 32 14.25Z" fill="#bbd0e9"/>
<path d="M45.4401 19.8201C45.7699 19.8138 46.0849 19.6814 46.3201 19.4501L52.6801 13.0801C52.9135 12.8467 53.0446 12.5301 53.0446 12.2001C53.0446 11.87 52.9135 11.5535 52.6801 11.3201C52.4467 11.0867 52.1302 10.9556 51.8001 10.9556C51.47 10.9556 51.1535 11.0867 50.9201 11.3201L44.5501 17.6801C44.4337 17.7962 44.3413 17.9341 44.2783 18.086C44.2153 18.2379 44.1829 18.4007 44.1829 18.5651C44.1829 18.7295 44.2153 18.8923 44.2783 19.0442C44.3413 19.196 44.4337 19.334 44.5501 19.4501C44.7878 19.6838 45.1068 19.8164 45.4401 19.8201V19.8201Z" fill="#bbd0e9"/>
<path d="M60 30.75H51C50.6685 30.75 50.3505 30.8817 50.1161 31.1161C49.8817 31.3505 49.75 31.6685 49.75 32C49.75 32.3315 49.8817 32.6495 50.1161 32.8839C50.3505 33.1183 50.6685 33.25 51 33.25H60C60.3315 33.25 60.6495 33.1183 60.8839 32.8839C61.1183 32.6495 61.25 32.3315 61.25 32C61.25 31.6685 61.1183 31.3505 60.8839 31.1161C60.6495 30.8817 60.3315 30.75 60 30.75Z" fill="#bbd0e9"/>
<path d="M46.3199 44.5499C46.0852 44.3152 45.7669 44.1833 45.4349 44.1833C45.103 44.1833 44.7846 44.3152 44.5499 44.5499C44.3152 44.7846 44.1833 45.103 44.1833 45.4349C44.1833 45.7669 44.3152 46.0852 44.5499 46.3199L50.9199 52.6799C51.0345 52.7972 51.1714 52.8905 51.3225 52.9541C51.4736 53.0178 51.6359 53.0506 51.7999 53.0506C51.9639 53.0506 52.1262 53.0178 52.2774 52.9541C52.4285 52.8905 52.5654 52.7972 52.6799 52.6799C52.796 52.5647 52.8882 52.4276 52.9511 52.2765C53.0139 52.1255 53.0463 51.9635 53.0463 51.7999C53.0463 51.6363 53.0139 51.4743 52.9511 51.3233C52.8882 51.1723 52.796 51.0352 52.6799 50.9199L46.3199 44.5499Z" fill="#bbd0e9"/>
<path d="M32 49.75C31.6685 49.75 31.3505 49.8817 31.1161 50.1161C30.8817 50.3505 30.75 50.6685 30.75 51V60C30.75 60.3315 30.8817 60.6495 31.1161 60.8839C31.3505 61.1183 31.6685 61.25 32 61.25C32.3315 61.25 32.6495 61.1183 32.8839 60.8839C33.1183 60.6495 33.25 60.3315 33.25 60V51C33.25 50.6685 33.1183 50.3505 32.8839 50.1161C32.6495 49.8817 32.3315 49.75 32 49.75V49.75Z" fill="#bbd0e9"/>
<path d="M17.68 44.5499L11.32 50.9199C11.2039 51.0352 11.1117 51.1723 11.0489 51.3233C10.986 51.4743 10.9536 51.6363 10.9536 51.7999C10.9536 51.9635 10.986 52.1255 11.0489 52.2765C11.1117 52.4276 11.2039 52.5647 11.32 52.6799C11.4346 52.7972 11.5714 52.8905 11.7226 52.9541C11.8737 53.0178 12.036 53.0506 12.2 53.0506C12.364 53.0506 12.5263 53.0178 12.6774 52.9541C12.8286 52.8905 12.9654 52.7972 13.08 52.6799L19.45 46.3199C19.5662 46.2037 19.6584 46.0657 19.7213 45.9139C19.7842 45.762 19.8166 45.5993 19.8166 45.4349C19.8166 45.2706 19.7842 45.1078 19.7213 44.956C19.6584 44.8041 19.5662 44.6661 19.45 44.5499C19.3338 44.4337 19.1958 44.3415 19.044 44.2786C18.8921 44.2157 18.7294 44.1833 18.565 44.1833C18.4006 44.1833 18.2379 44.2157 18.086 44.2786C17.9342 44.3415 17.7962 44.4337 17.68 44.5499V44.5499Z" fill="#bbd0e9"/>
<path d="M14.25 32C14.25 31.6685 14.1183 31.3505 13.8839 31.1161C13.6495 30.8817 13.3315 30.75 13 30.75H4C3.66848 30.75 3.35054 30.8817 3.11612 31.1161C2.8817 31.3505 2.75 31.6685 2.75 32C2.75 32.3315 2.8817 32.6495 3.11612 32.8839C3.35054 33.1183 3.66848 33.25 4 33.25H13C13.3315 33.25 13.6495 33.1183 13.8839 32.8839C14.1183 32.6495 14.25 32.3315 14.25 32Z" fill="#bbd0e9"/>
<path d="M33.5 20.25C33.1685 20.25 32.8506 20.3817 32.6161 20.6161C32.3817 20.8505 32.25 21.1685 32.25 21.5C32.25 21.8315 32.3817 22.1495 32.6161 22.3839C32.8506 22.6183 33.1685 22.75 33.5 22.75C34.9244 22.7508 36.321 23.1441 37.5365 23.8868C38.7519 24.6294 39.7392 25.6927 40.3899 26.9598C41.0405 28.2269 41.3294 29.6488 41.2248 31.0693C41.1202 32.4899 40.626 33.8541 39.7968 35.0122C38.9675 36.1702 37.835 37.0774 36.5239 37.6339C35.2127 38.1905 33.7736 38.3749 32.3644 38.167C30.9553 37.9591 29.6307 37.3668 28.5362 36.4553C27.4417 35.5438 26.6195 34.3482 26.16 33L28.69 34.53C28.9778 34.7037 29.3228 34.756 29.6491 34.6754C29.8107 34.6354 29.9628 34.5641 30.0968 34.4654C30.2308 34.3666 30.344 34.2425 30.43 34.1C30.516 33.9575 30.5731 33.7995 30.5981 33.6349C30.623 33.4704 30.6153 33.3025 30.5754 33.141C30.5355 32.9794 30.4641 32.8272 30.3654 32.6933C30.2667 32.5593 30.1425 32.446 30 32.36L25.11 29.36C24.826 29.1911 24.4867 29.1416 24.1663 29.2221C23.8459 29.3027 23.5704 29.5069 23.4 29.79L20.4 34.67C20.3146 34.8097 20.2578 34.9649 20.2327 35.1266C20.2076 35.2884 20.2148 35.4535 20.2538 35.6125C20.2929 35.7715 20.363 35.9211 20.4602 36.0529C20.5574 36.1846 20.6797 36.2958 20.82 36.38C21.014 36.5044 21.2396 36.5704 21.47 36.57C21.6869 36.5778 21.9022 36.5294 22.0949 36.4295C22.2876 36.3297 22.4513 36.1817 22.57 36L23.84 33.9C24.4637 35.6739 25.5634 37.242 27.0186 38.4327C28.4738 39.6235 30.2285 40.391 32.0908 40.6513C33.953 40.9116 35.8509 40.6546 37.5769 39.9085C39.3028 39.1624 40.7903 37.956 41.8765 36.4211C42.9627 34.8863 43.6057 33.0822 43.7353 31.2064C43.8649 29.3305 43.476 27.4552 42.6111 25.7856C41.7463 24.1159 40.4389 22.7164 38.8319 21.74C37.2249 20.7637 35.3803 20.2482 33.5 20.25V20.25Z" fill="#bbd0e9"/>
</svg>
