<?xml version="1.0" standalone="no"?>
<!DOCTYPE svg PUBLIC "-//W3C//DTD SVG 20010904//EN"
 "http://www.w3.org/TR/2001/REC-SVG-20010904/DTD/svg10.dtd">
<svg version="1.0" xmlns="http://www.w3.org/2000/svg"
 width="441.000000pt" height="137.000000pt" viewBox="0 0 441.000000 137.000000"
 preserveAspectRatio="xMidYMid meet">

<g transform="translate(0.000000,137.000000) scale(0.100000,-0.100000)"
fill="#000000" stroke="none">
<path d="M0 685 l0 -685 2205 0 2205 0 0 685 0 685 -2205 0 -2205 0 0 -685z
m980 0 c0 -558 0 -565 -20 -565 -20 0 -20 7 -20 565 0 558 0 565 20 565 20 0
20 -7 20 -565z m-468 402 c70 -39 139 -81 153 -92 49 -37 53 -73 54 -409 0
-293 -4 -346 -29 -346 -5 0 -10 135 -12 328 -3 288 -5 331 -21 362 -19 39 -32
48 -199 145 -65 37 -118 72 -118 76 0 23 57 2 172 -64z m-57 -41 c55 -32 115
-69 133 -83 62 -47 63 -48 60 -415 -3 -310 -4 -333 -21 -336 -10 -2 -52 17
-95 42 -94 55 -117 71 -75 51 55 -26 82 -13 61 29 -8 15 1 12 46 -13 31 -18
60 -30 66 -26 6 4 10 109 10 290 l0 284 -160 90 c-87 50 -166 91 -175 91 -13
0 -15 -34 -15 -280 0 -318 -8 -288 95 -346 33 -18 53 -34 43 -34 -21 0 -28
-20 -16 -43 5 -10 8 -20 6 -23 -7 -7 -105 58 -119 80 -11 17 -15 88 -17 351
-2 181 0 340 3 352 5 22 7 22 38 10 17 -8 77 -40 132 -71z m2797 -13 c18 -16
24 -58 10 -80 -12 -19 -61 -34 -88 -27 -43 11 -59 71 -27 106 20 23 80 24 105
1z m-2735 -126 l93 -52 0 -262 c0 -289 4 -275 -60 -233 -14 9 -71 43 -127 75
l-103 59 0 263 0 263 53 -30 c28 -17 94 -54 144 -83z m1021 73 c64 -17 67 -22
47 -73 l-17 -44 -60 18 c-100 32 -172 20 -185 -29 -8 -34 25 -57 107 -76 130
-30 178 -64 187 -134 10 -73 -16 -119 -90 -159 -62 -34 -264 -20 -322 23 -17
13 -18 17 -6 36 8 12 17 32 20 44 l6 22 55 -23 c98 -43 220 -28 220 25 0 27
-31 44 -121 69 -101 28 -137 47 -160 85 -29 45 -21 119 16 164 53 63 182 86
303 52z m984 9 c29 -6 65 -18 79 -25 74 -38 139 -143 139 -227 0 -56 -18 -137
-31 -137 -5 0 -9 -6 -9 -13 0 -19 -59 -74 -102 -94 -46 -23 -38 -42 20 -50 30
-4 49 -1 68 12 25 16 27 16 55 -11 28 -26 28 -28 11 -47 -26 -29 -75 -47 -132
-47 -65 0 -105 17 -167 72 -35 32 -63 47 -92 52 -22 3 -41 11 -41 18 0 6 -3 8
-6 5 -13 -13 -81 52 -109 105 -25 45 -29 64 -30 130 0 49 5 82 13 90 6 6 12
19 12 27 0 44 110 124 193 141 60 11 70 11 129 -1z m-422 -49 l0 -50 -135 0
-135 0 0 -55 0 -55 121 0 120 0 -3 -47 -3 -48 -117 -3 -118 -3 0 -54 0 -55
140 0 140 0 0 -50 0 -50 -205 0 -205 0 0 253 c0 140 3 257 7 260 3 4 93 7 200
7 l193 0 0 -50z m1398 -32 l3 -48 50 0 49 0 0 -45 0 -45 -50 0 -50 0 -1 -72
c-2 -127 4 -142 59 -136 31 4 36 1 48 -29 20 -47 18 -51 -25 -64 -79 -24 -167
12 -192 78 -5 13 -9 69 -9 124 l0 99 -30 0 c-29 0 -30 2 -30 45 0 43 1 45 30
45 29 0 30 1 30 50 l0 51 58 -3 57 -3 3 -47z m-561 -57 c5 -20 5 -20 41 0 20
10 49 19 64 19 27 0 28 -2 28 -49 l0 -49 -39 -7 c-22 -3 -46 -12 -54 -18 -25
-21 -37 -77 -37 -178 l0 -99 -60 0 -60 0 0 200 0 200 56 0 c47 0 57 -3 61 -19z
m323 -181 l0 -200 -60 0 -60 0 0 200 0 200 60 0 60 0 0 -200z m539 63 c51
-124 61 -141 67 -110 2 7 24 64 51 127 l49 115 57 3 c31 2 57 2 57 0 0 -4 -66
-164 -80 -193 -5 -11 -30 -69 -55 -130 -64 -151 -81 -179 -127 -205 -34 -19
-50 -22 -105 -17 -85 6 -100 21 -76 71 14 31 21 36 40 32 13 -4 34 -9 47 -12
18 -4 32 1 50 19 l25 25 -89 207 -89 206 62 -3 61 -3 55 -132z m-3309 -409 c0
-2 -9 0 -20 6 -11 6 -20 13 -20 16 0 2 9 0 20 -6 11 -6 20 -13 20 -16z"/>
<path d="M420 1021 c0 -11 62 -51 79 -51 22 0 11 20 -21 40 -35 21 -58 26 -58
11z"/>
<path d="M540 955 c0 -8 7 -15 15 -15 8 0 15 4 15 9 0 5 -7 11 -15 15 -9 3
-15 0 -15 -9z"/>
<path d="M582 928 c3 -7 13 -15 22 -16 12 -3 17 1 14 10 -3 7 -13 15 -22 16
-12 3 -17 -1 -14 -10z"/>
<path d="M348 956 c-20 -15 -24 -36 -8 -36 15 0 60 31 60 41 0 13 -33 10 -52
-5z"/>
<path d="M411 924 c-17 -12 -20 -19 -10 -24 15 -10 49 10 49 27 0 17 -11 16
-39 -3z"/>
<path d="M480 895 c-10 -13 -9 -15 9 -15 11 0 21 4 21 9 0 18 -18 21 -30 6z"/>
<path d="M340 880 c-8 -5 -11 -12 -8 -16 10 -9 38 3 38 16 0 12 -10 13 -30 0z"/>
<path d="M395 852 c-41 -24 -70 -51 -62 -58 4 -4 13 -1 22 6 8 7 15 9 15 6 0
-4 13 2 29 13 16 12 34 21 40 21 6 0 11 7 11 15 0 20 -18 19 -55 -3z"/>
<path d="M2373 870 c-60 -36 -92 -119 -73 -188 11 -44 61 -101 92 -108 13 -3
33 -7 46 -10 13 -2 40 0 62 6 138 37 157 239 28 306 -39 20 -117 18 -155 -6z"/>
</g>
</svg>
